<svg xmlns="http://www.w3.org/2000/svg" xml:space="preserve" width="50.3269mm" height="49.5254mm" version="1.1" style="shape-rendering:geometricPrecision; text-rendering:geometricPrecision; image-rendering:optimizeQuality; fill-rule:evenodd; clip-rule:evenodd"
viewBox="0 0 1223.36 1203.88"
 xmlns:xlink="http://www.w3.org/1999/xlink"
 xmlns:xodm="http://www.corel.com/coreldraw/odm/2003">
 <defs>
  <style type="text/css">
   <![CDATA[
    .fil1 {fill:#66FFCC;fill-rule:nonzero}
    .fil0 {fill:white;fill-rule:nonzero}
   ]]>
  </style>
 </defs>
 <g id="logo-mizera">
  <metadata id="CorelCorpID_0Corel-Layer"/>
  <path class="fil0" d="M656.85 567.22c3.25,-0.16 6.41,-0.61 9.5,-1.34 3.09,-0.73 5.36,-1.66 6.82,-2.8 1.46,1.46 3.16,3.69 5.11,6.7 1.95,3.01 3.53,6.41 4.75,10.23 1.22,3.82 1.74,7.84 1.58,12.06 -0.33,6.33 -3,11.4 -8.04,15.22 -5.03,3.82 -11.29,5.8 -18.75,5.96 -1.47,0 -4.18,0 -8.17,0 -3.97,0 -8.24,0 -12.79,0 -4.54,0 -8.27,0 -11.2,0 -2.76,0 -5.44,0.69 -8.04,2.07 -2.6,1.38 -4.14,2.96 -4.63,4.75 -0.81,2.44 0.65,4.46 4.38,6.09 0.81,0.33 2.8,1.38 5.97,3.16 3.17,1.79 6.86,3.78 11.08,5.97 4.22,2.19 8.44,4.22 12.66,6.08 4.22,1.87 7.84,3.13 10.84,3.78 3,0.65 4.83,0.24 5.47,-1.22 1.63,0.65 3.98,1.83 7.06,3.53 3.08,1.71 5.73,4.47 7.92,8.28 2.19,3.82 3.04,9.21 2.56,16.19 -0.33,3.74 -2.6,8.53 -6.82,14.37 -4.22,5.85 -11.93,11.44 -23.14,16.8 -10.72,5.03 -17.98,9.14 -21.8,12.3 -3.82,3.17 -5.56,5.48 -5.24,6.94 0.16,1.3 1.06,2.32 2.68,3.05 1.62,0.73 3.9,1.42 6.82,2.07 1.46,0.33 3.9,0.49 7.3,0.49 3.41,0 7.23,-0.16 11.45,-0.49 4.22,-0.32 8.2,-0.93 11.93,-1.82 3.73,-0.9 6.58,-2.07 8.52,-3.53 0.82,1.3 2.2,3.61 4.14,6.94 1.95,3.33 3.69,7.06 5.23,11.2 1.54,4.14 2.32,8.16 2.32,12.05 -0.16,5.84 -1.75,10.72 -4.75,14.61 -3,3.9 -8.97,6.25 -17.9,7.06 -1.46,0.16 -5.6,0.24 -12.42,0.24 -6.82,0 -15.43,0 -25.82,0 -10.39,0 -21.55,0 -33.49,0 -11.94,0 -23.75,0 -35.44,0 -11.69,0 -22.41,-0.04 -32.15,-0.12 -9.74,-0.08 -17.54,-0.12 -23.38,-0.12l-6.39 0c-1.05,-3.61 -1.88,-7.29 -2.51,-11.03 0.26,-3.67 0.88,-7.63 1.83,-11.87 1.14,-5.03 2.97,-9.66 5.48,-13.88 2.52,-4.22 6.05,-7.14 10.6,-8.77 0,0 1.5,-0.77 4.51,-2.32 3,-1.54 6.9,-3.61 11.69,-6.21 4.79,-2.6 9.94,-5.4 15.46,-8.4 5.52,-3 10.96,-5.93 16.32,-8.77 5.36,-2.84 10.06,-5.36 14.12,-7.55 4.06,-2.19 6.9,-3.69 8.52,-4.5 4.71,-2.76 7.96,-5.4 9.74,-7.91 1.78,-2.52 2.76,-5.23 2.92,-8.16 0,-6.01 -4.63,-11.77 -13.88,-17.3 -1.46,-0.81 -4.59,-2.43 -9.38,-4.87 -4.79,-2.44 -10.51,-5.28 -17.17,-8.53 -6.66,-3.25 -13.48,-6.61 -20.46,-10.1 -6.99,-3.49 -13.52,-6.7 -19.61,-9.62 -6.09,-2.92 -11.04,-5.31 -14.86,-7.18 -3.81,-1.86 -5.72,-2.8 -5.72,-2.8 -0.16,-1.13 -0.28,-2.8 -0.36,-4.99 -0.08,-2.19 0.04,-4.58 0.36,-7.18 0.32,-4.55 1.22,-9.38 2.68,-14.5 1.46,-5.11 3.74,-9.58 6.82,-13.39 3.08,-3.81 7.22,-5.97 12.42,-6.45 2.75,-0.33 7.26,-0.57 13.51,-0.73 6.25,-0.17 13.64,-0.25 22.16,-0.25 8.53,0 17.58,0 27.16,0 9.58,0 19,0.04 28.25,0.12 9.25,0.08 17.78,0.17 25.57,0.25 7.8,0.08 14.17,0.12 19.12,0.12 4.95,0 7.91,0 8.89,0zm-50.37 377.21c33.97,1.2 64.61,5.5 87.95,11.85 34.95,9.5 56.57,25.72 56.57,46.39 0,20.67 -21.62,36.89 -56.57,46.39 -27.69,7.53 -65.63,12.19 -107.24,12.19 -41.61,0 -79.55,-4.66 -107.24,-12.19 -34.95,-9.5 -56.57,-25.72 -56.57,-46.39 0,-20.67 21.62,-36.89 56.57,-46.39 23.35,-6.35 53.98,-10.66 87.95,-11.85l0 -42.51c-35.32,-4.39 -67.07,-20.67 -91.08,-44.69 -28.31,-28.3 -45.88,-67.38 -45.88,-110.36l0 -50.84c-23.78,0 -43.06,-19.28 -43.06,-43.06 0,-23.78 19.28,-43.06 43.06,-43.06l38.56 0 0 136.96c0,32.34 13.24,61.76 34.58,83.1 21.34,21.34 50.75,34.58 83.1,34.58 32.34,0 61.76,-13.25 83.1,-34.58 21.34,-21.34 34.58,-50.76 34.58,-83.1l0 -136.96 38.56 0c23.78,0 43.06,19.28 43.06,43.06 0,23.78 -19.28,43.06 -43.06,43.06l0 50.84c0,42.98 -17.57,82.06 -45.88,110.36 -24.01,24.01 -55.76,40.29 -91.08,44.68l0 42.51zm33.68 -748.32c0,5.85 -1.34,10.55 -4.02,14.13 -2.68,3.57 -5.97,6.09 -9.86,7.55 -3.9,1.46 -7.63,2.03 -11.21,1.7 -4.71,-0.49 -9.01,-2.84 -12.91,-7.06 -3.9,-4.22 -5.85,-9.98 -5.85,-17.29 0,-5.04 0.41,-8.81 1.22,-11.33 0.81,-2.52 2.52,-4.51 5.11,-5.97 2.6,-1.46 6.5,-3.08 11.69,-4.87 3.73,-1.3 7.59,-1.18 11.57,0.36 3.98,1.55 7.35,4.27 10.1,8.16 2.76,3.9 4.14,8.77 4.14,14.61zm-34.94 50.59c0.16,0.65 1.05,1.58 2.68,2.8 1.62,1.22 3.33,2.07 5.12,2.56 2.6,0.82 4.71,0.57 6.33,-0.73 4.06,-3.41 8.81,-7.8 14.24,-13.16 5.44,-5.35 10.6,-10.75 15.47,-16.19 4.87,-5.44 8.6,-10.11 11.2,-14 7.8,2.92 14.01,7.51 18.63,13.76 4.63,6.25 6.86,13.19 6.69,20.82 -0.16,7.63 -3.57,15.1 -10.22,22.41 -0.97,0.97 -3.13,2.84 -6.46,5.6 -3.33,2.76 -7.27,5.92 -11.81,9.5 -4.55,3.57 -9.09,7.14 -13.64,10.72 -4.54,3.57 -8.52,6.66 -11.93,9.25 -3.41,2.6 -5.52,4.22 -6.33,4.87 -4.06,3.09 -4.95,6.01 -2.68,8.77 2.28,2.76 6.98,4.46 14.13,5.11 4.22,0.32 9.05,0.28 14.49,-0.12 5.44,-0.41 10.27,-1.06 14.49,-1.95 4.22,-0.89 6.74,-1.83 7.55,-2.8 2.6,3.41 5.03,7.63 7.31,12.67 2.27,5.03 3.65,10.79 4.14,17.29 0.16,2.43 -0.49,5.27 -1.95,8.52 -1.46,3.25 -3.86,6.05 -7.19,8.4 -3.33,2.36 -7.51,3.61 -12.54,3.78 -1.3,0 -4.71,0.04 -10.23,0.12 -5.52,0.08 -12.3,0.16 -20.34,0.24 -8.04,0.08 -16.36,0.12 -24.96,0.12 -8.61,0 -16.72,0.04 -24.36,0.12 -7.63,0.08 -13.8,0.12 -18.51,0.12 -4.71,0 -7.06,0 -7.06,0 -9.58,0 -17.58,0.24 -23.99,0.73 -6.41,0.48 -11.32,2.43 -14.73,5.85 -3.09,3.08 -7.55,5.39 -13.4,6.94 -5.85,1.55 -11.36,2.23 -16.56,2.07 0.16,-0.65 0.37,-2.6 0.61,-5.85 0.24,-3.25 0.53,-6.41 0.85,-9.5 0,-2.11 -0.04,-5.16 -0.12,-9.14 -0.08,-3.98 -0.2,-8.24 -0.36,-12.79 -0.16,-4.54 -0.28,-8.77 -0.36,-12.66 -0.08,-3.9 -0.2,-6.82 -0.36,-8.77 0,-1.46 -0.04,-4.18 -0.12,-8.16 -0.08,-3.97 -0.12,-8.64 -0.12,-14 0,-5.36 0.04,-10.8 0.12,-16.32 0.08,-5.52 0.28,-10.64 0.61,-15.34 0.32,-4.71 0.73,-8.36 1.22,-10.96 1.95,-10.72 5.52,-18.99 10.72,-24.84 5.2,-5.85 11.45,-10.02 18.76,-12.54 7.3,-2.51 15.26,-4.01 23.87,-4.5 7.3,-0.33 14.94,0.49 22.89,2.43 7.96,1.95 15.34,5.28 22.17,9.99 6.81,4.71 12.17,10.96 16.07,18.75zm-52.36 71.6c5.2,0 9.05,-1.22 11.57,-3.65 2.52,-2.43 4.02,-4.71 4.51,-6.82 0.65,-2.93 0.69,-6.66 0.12,-11.2 -0.57,-4.55 -1.71,-9.1 -3.42,-13.64 -1.7,-4.54 -3.94,-8.4 -6.69,-11.57 -2.76,-3.17 -5.93,-4.75 -9.5,-4.75 -4.71,0 -8.32,1.95 -10.84,5.85 -2.52,3.9 -4.1,8.81 -4.75,14.74 -0.65,5.93 -0.49,11.81 0.49,17.65 0.65,4.55 2.68,7.96 6.09,10.23 3.41,2.27 7.55,3.33 12.42,3.17zm83.29 127.62c1.14,-5.68 1.91,-11.29 2.32,-16.81 0.4,-5.52 0.48,-10.35 0.24,-14.49 -0.24,-4.14 -0.61,-7.1 -1.1,-8.89 2.76,-0.65 6.21,-0.81 10.36,-0.49 4.14,0.33 8.36,1.18 12.66,2.56 4.3,1.38 8.16,3.45 11.57,6.21 3.41,2.76 5.76,6.34 7.06,10.72 0.82,2.76 1.59,7.06 2.32,12.91 0.73,5.85 1.33,12.54 1.82,20.09 0.49,7.55 0.77,15.35 0.85,23.38 0.08,8.04 -0.08,15.71 -0.48,23.02 -0.41,7.31 -1.14,13.68 -2.19,19.12 -1.06,5.44 -2.4,9.29 -4.02,11.57 -3.57,4.38 -8,6.78 -13.27,7.19 -5.28,0.4 -10.68,-0.49 -16.2,-2.68 -5.52,-2.19 -10.15,-4.91 -13.88,-8.16 -2.28,-1.95 -6.01,-4.87 -11.21,-8.77 -5.19,-3.89 -11,-8.16 -17.41,-12.78 -6.42,-4.63 -12.75,-9.14 -19,-13.52 -6.25,-4.38 -11.61,-8.12 -16.07,-11.2 -4.47,-3.08 -7.26,-4.95 -8.4,-5.6 -2.92,-1.62 -5.8,-2.55 -8.65,-2.8 -2.84,-0.24 -5.32,0.04 -7.43,0.86 -2.76,0.97 -5.07,2.64 -6.94,4.99 -1.86,2.35 -3.12,5.89 -3.77,10.59 -0.33,2.44 -0.69,5.52 -1.1,9.25 -0.4,3.74 -0.97,7.67 -1.7,11.82 -0.73,4.14 -1.66,7.87 -2.8,11.2 -1.14,3.33 -2.51,5.8 -4.14,7.43 -2.11,2.11 -5.24,4.02 -9.38,5.72 -4.14,1.7 -8.61,3 -13.39,3.9 -4.79,0.89 -9.05,1.34 -12.79,1.34 0.32,-0.81 0.65,-3.69 0.97,-8.64 0.33,-4.95 0.65,-11.05 0.97,-18.27 0.33,-7.23 0.61,-14.78 0.86,-22.65 0.24,-7.87 0.44,-15.35 0.61,-22.41 0.17,-7.06 0.25,-12.79 0.25,-17.17 0.16,-11.69 -0.12,-22.08 -0.85,-31.18 -0.73,-9.09 -1.59,-15.58 -2.56,-19.48 4.22,-2.27 8.97,-3.45 14.25,-3.53 5.27,-0.08 10.55,0.65 15.83,2.19 5.27,1.54 10.11,3.61 14.49,6.21 1.14,0.65 3.53,2.19 7.18,4.62 3.65,2.44 8.08,5.4 13.28,8.89 5.19,3.49 10.59,7.18 16.19,11.08 5.61,3.9 10.92,7.55 15.95,10.96 5.04,3.41 9.25,6.29 12.67,8.64 3.41,2.35 5.52,3.78 6.33,4.26 7.96,5.19 14.41,6.74 19.36,4.63 4.95,-2.11 8.4,-7.39 10.35,-15.83z"/>
  <path class="fil1" d="M720.74 66.36c-1.61,-0.36 -3.21,-0.74 -4.75,-1.14 -1.57,-0.41 -3,-0.83 -4.35,-1.29l-8.62 38.48 -18.08 -4.05 22.04 -98.36 28.42 6.37c4.74,1.06 8.87,2.2 12.33,3.42 3.45,1.2 6.5,2.54 9.1,3.99 6.27,3.57 10.7,8.01 13.33,13.35 2.64,5.31 3.16,11.44 1.6,18.42 -1.06,4.74 -3,8.79 -5.81,12.14 -2.81,3.38 -6.42,5.94 -10.78,7.73 -4.36,1.82 -9.44,2.81 -15.2,3 -5.77,0.21 -12.18,-0.49 -19.23,-2.07zm-594.02 867.07c-4.21,2.38 -8.61,3.72 -13.2,4.04 -4.58,0.34 -9.42,-0.07 -14.44,-1.22 -5.02,-1.14 -10.3,-2.89 -15.83,-5.2 -5.51,-2.36 -11.31,-5.03 -17.39,-7.98l-0.33 0.18c5.01,7.81 8.62,13.65 10.83,17.56l12.98 22.96 -17.56 9.92 -41.91 -74.15 12.66 -7.16c7.67,3.74 15.08,7.24 22.25,10.52 7.18,3.23 13.82,5.9 19.87,7.96 6.06,2.09 11.52,3.38 16.43,3.83 4.88,0.47 9,-0.24 12.38,-2.15 2.03,-1.15 3.54,-2.52 4.52,-4.05 0.98,-1.54 1.51,-3.26 1.66,-5.15 0.12,-1.88 -0.13,-3.87 -0.74,-5.92 -0.66,-2.07 -1.58,-4.19 -2.8,-6.34 -2.36,-4.18 -5.65,-8.47 -9.87,-12.79 -4.18,-4.33 -9.11,-8.44 -14.78,-12.41l17.59 -9.94c2.05,1.32 4.22,2.86 6.5,4.67 2.29,1.82 4.61,3.9 6.97,6.19 2.33,2.31 4.64,4.86 6.87,7.7 2.28,2.85 4.34,5.94 6.21,9.26 2.8,4.95 4.74,9.85 5.86,14.69 1.12,4.84 1.35,9.44 0.68,13.76 -0.67,4.32 -2.3,8.27 -4.82,11.9 -2.52,3.63 -6.08,6.75 -10.62,9.31zm37.98 70.91c7.63,-6.69 12.27,-13.27 13.9,-19.68 1.63,-6.41 0.12,-12.24 -4.5,-17.5 -4.68,-5.34 -10.29,-7.62 -16.86,-6.84 -6.57,0.79 -13.69,4.53 -21.32,11.22 -7.63,6.7 -12.27,13.27 -13.9,19.68 -1.63,6.41 -0.1,12.27 4.58,17.6 4.62,5.26 10.2,7.52 16.77,6.74 6.56,-0.79 13.69,-4.53 21.32,-11.23zm16.29 18.56c-5.49,4.82 -11.23,8.53 -17.21,11.18 -5.98,2.6 -11.97,3.93 -17.96,4.03 -5.99,0.09 -11.91,-1.19 -17.69,-3.83 -5.79,-2.64 -11.2,-6.83 -16.22,-12.56 -4.95,-5.65 -8.36,-11.51 -10.2,-17.56 -1.84,-6.05 -2.35,-12.09 -1.52,-18.06 0.83,-5.97 2.89,-11.79 6.19,-17.43 3.36,-5.64 7.76,-10.87 13.25,-15.69 5.49,-4.82 11.25,-8.5 17.28,-11.1 6.03,-2.55 12.09,-3.85 18.14,-3.92 6.06,-0.07 11.95,1.24 17.69,3.88 5.73,2.64 11.1,6.78 16.06,12.42 5.02,5.72 8.48,11.64 10.37,17.69 1.89,6.05 2.42,12.07 1.52,18.01 -0.9,5.94 -3.03,11.74 -6.38,17.32 -3.4,5.59 -7.83,10.8 -13.32,15.61zm78.23 40.55c-3.16,3.66 -6.85,6.41 -11.06,8.26 -4.2,1.87 -8.89,3.11 -14,3.73 -5.11,0.62 -10.67,0.76 -16.65,0.45 -5.98,-0.36 -12.35,-0.91 -19.07,-1.63l-0.25 0.28c7.35,5.66 12.72,9.93 16.12,12.87l19.97 17.23 -13.18 15.27 -64.49 -55.64 9.5 -11.01c8.49,0.93 16.64,1.72 24.5,2.38 7.85,0.61 15,0.89 21.39,0.78 6.41,-0.08 11.99,-0.71 16.76,-1.94 4.75,-1.2 8.39,-3.27 10.92,-6.2 1.52,-1.77 2.49,-3.56 2.89,-5.35 0.4,-1.78 0.32,-3.58 -0.18,-5.41 -0.52,-1.81 -1.43,-3.59 -2.7,-5.32 -1.32,-1.73 -2.9,-3.41 -4.77,-5.02 -3.64,-3.14 -8.18,-6.06 -13.61,-8.7 -5.4,-2.67 -11.42,-4.87 -18.1,-6.69l13.2 -15.3c2.38,0.55 4.93,1.27 7.7,2.2 2.77,0.94 5.65,2.11 8.65,3.47 2.97,1.39 6.01,3.01 9.07,4.92 3.11,1.91 6.09,4.13 8.97,6.61 4.31,3.72 7.79,7.67 10.48,11.85 2.69,4.18 4.46,8.43 5.29,12.72 0.83,4.29 0.63,8.57 -0.52,12.83 -1.14,4.27 -3.44,8.4 -6.85,12.35zm15.66 68.74l27.66 -43.75 -33.77 -9.94 11.33 -17.92 40.72 9.35 15.48 9.79 -41.24 65.23 23.95 15.14 -10.78 17.05 -71.06 -44.93 10.78 -17.05 26.93 17.03zm887.25 -526.56c-0.05,-3.34 2.62,-6.1 5.96,-6.15 3.34,-0.05 6.1,2.62 6.15,5.96l0.17 11.23c0,162.15 -65.72,308.95 -171.99,415.22 -106.26,106.26 -253.07,171.99 -415.22,171.99 -32.51,0 -64.46,-2.66 -95.65,-7.77 -31.86,-5.22 -62.84,-13 -92.73,-23.11 -3.17,-1.07 -4.87,-4.52 -3.8,-7.69 1.07,-3.17 4.52,-4.87 7.69,-3.8 29.29,9.91 59.63,17.53 90.78,22.64 30.43,4.99 61.73,7.58 93.71,7.58 158.79,0 302.56,-64.37 406.62,-168.43 104.06,-104.06 168.43,-247.83 168.43,-406.62l-0.02 -5.46 -0.1 -5.58zm-1117.19 202.84c1.11,3.16 -0.54,6.63 -3.7,7.74 -3.16,1.11 -6.63,-0.54 -7.74,-3.7 -10.96,-31 -19.41,-63.2 -25.08,-96.33 -5.54,-32.37 -8.43,-65.62 -8.43,-99.5 0,-162.15 65.72,-308.95 171.99,-415.22 106.26,-106.26 253.07,-171.99 415.22,-171.99 5.82,0 12.05,0.12 18.66,0.34 6.4,0.21 12.58,0.51 18.52,0.88 3.34,0.21 5.88,3.09 5.67,6.43 -0.21,3.34 -3.09,5.88 -6.43,5.67 -6.22,-0.39 -12.28,-0.69 -18.14,-0.88 -5.65,-0.19 -11.74,-0.29 -18.28,-0.29 -158.79,0 -302.56,64.37 -406.62,168.43 -104.06,104.06 -168.43,247.83 -168.43,406.62 0,33.25 2.82,65.82 8.24,97.46 5.55,32.45 13.82,63.98 24.56,94.34zm670.08 -759.68c1,0.38 2.27,0.8 3.84,1.23 1.59,0.44 3.24,0.83 4.95,1.22 4.84,1.08 9,1.59 12.44,1.55 3.46,-0.04 6.34,-0.53 8.67,-1.49 2.32,-0.95 4.13,-2.32 5.45,-4.1 1.32,-1.79 2.26,-3.84 2.79,-6.2 0.65,-2.89 0.56,-5.54 -0.3,-7.95 -0.86,-2.41 -2.78,-4.55 -5.8,-6.47 -1.58,-0.96 -3.59,-1.86 -6.06,-2.71 -2.45,-0.84 -5.51,-1.66 -9.17,-2.48l-10.14 -2.27 -6.65 29.67zm149.29 57.9c2.6,-5.57 4.18,-10.74 4.75,-15.55 0.59,-4.8 0.32,-9.16 -0.81,-13.06 -1.11,-3.89 -3.01,-7.31 -5.68,-10.23 -2.67,-2.92 -5.99,-5.29 -9.95,-7.14 -3.96,-1.85 -7.92,-2.87 -11.87,-3.03 -3.95,-0.17 -7.79,0.57 -11.48,2.23 -3.72,1.64 -7.22,4.24 -10.52,7.78 -3.32,3.53 -6.26,8.07 -8.86,13.64 -2.59,5.55 -4.18,10.74 -4.75,15.55 -0.59,4.81 -0.31,9.14 0.82,13.04 1.12,3.87 3.02,7.28 5.68,10.23 2.67,2.92 5.98,5.31 9.95,7.16 3.96,1.85 7.93,2.84 11.88,3.01 3.96,0.14 7.8,-0.6 11.48,-2.23 3.72,-1.65 7.22,-4.22 10.51,-7.76 3.32,-3.53 6.27,-8.09 8.86,-13.64zm17.35 8.09c-3.25,6.97 -7.2,12.91 -11.89,17.79 -4.69,4.88 -9.94,8.54 -15.69,10.94 -5.76,2.43 -11.94,3.52 -18.58,3.26 -6.6,-0.27 -13.44,-2.03 -20.51,-5.33 -7.06,-3.29 -12.82,-7.39 -17.27,-12.28 -4.46,-4.92 -7.61,-10.36 -9.45,-16.33 -1.85,-5.95 -2.41,-12.31 -1.68,-19.04 0.72,-6.73 2.7,-13.58 5.95,-20.56 3.25,-6.97 7.23,-12.89 11.92,-17.78 4.69,-4.88 9.92,-8.55 15.66,-10.95 5.76,-2.43 11.94,-3.52 18.58,-3.26 6.6,0.27 13.44,2.04 20.51,5.33 7.07,3.29 12.82,7.39 17.27,12.28 4.46,4.92 7.6,10.36 9.45,16.33 1.85,5.94 2.43,12.32 1.71,19.05 -0.72,6.73 -2.72,13.58 -5.97,20.55zm-3.9 54.95l63.87 -77.98 20.64 16.9c1.83,1.5 3.63,3.08 5.42,4.74 1.79,1.67 3.49,3.33 5.09,5.03 1.59,1.71 3.08,3.39 4.48,5.1 1.41,1.69 2.64,3.36 3.64,4.98 3.08,4.72 5.28,9.51 6.64,14.38 1.34,4.86 1.83,9.71 1.46,14.54 -0.34,4.84 -1.53,9.62 -3.51,14.32 -2,4.68 -4.82,9.25 -8.44,13.67 -3.44,4.2 -7.12,7.77 -11.06,10.66 -3.95,2.92 -8.1,5.1 -12.49,6.56 -4.4,1.48 -8.98,2.19 -13.77,2.12 -4.8,-0.07 -9.77,-0.98 -14.95,-2.73 -4.31,-1.47 -8.84,-3.62 -13.53,-6.42 -4.7,-2.82 -9.7,-6.38 -14.94,-10.67l-18.55 -15.2zm30 4.62c8.34,6.83 15.81,11.02 22.39,12.58 5.84,1.36 11.44,0.93 16.78,-1.25 5.34,-2.18 10.52,-6.31 15.53,-12.42 2.61,-3.18 4.6,-6.34 6,-9.48 1.41,-3.14 2.26,-6.26 2.58,-9.32 0.33,-3.09 0.12,-6.12 -0.58,-9.08 -0.7,-3 -1.87,-5.92 -3.47,-8.79 -1.51,-2.67 -3.47,-5.3 -5.85,-7.92 -2.42,-2.61 -5.3,-5.3 -8.68,-8.08l-6.29 -5.15 -44.31 54.1 5.89 4.83zm149.4 39.22c-3.43,-3.66 -7.21,-6.5 -11.33,-8.45 -4.1,-1.97 -8.35,-2.97 -12.73,-3.02 -4.4,-0.07 -8.87,0.87 -13.44,2.81 -4.58,1.93 -9.04,4.94 -13.4,9.02 -4.34,4.06 -7.63,8.19 -9.84,12.42 -2.23,4.2 -3.45,8.4 -3.64,12.6 -0.21,4.18 0.54,8.34 2.28,12.45 1.76,4.1 4.45,8.1 8.09,11.99 2.62,2.8 5.48,5.44 8.62,7.93 3.14,2.52 6.29,4.65 9.47,6.43l-11.51 10.78c-3.14,-1.89 -6.29,-4.12 -9.5,-6.68 -3.21,-2.6 -6.3,-5.48 -9.29,-8.68 -5.84,-6.24 -10.09,-12.55 -12.74,-18.95 -2.63,-6.39 -3.82,-12.7 -3.56,-18.94 0.28,-6.22 1.92,-12.26 4.95,-18.09 3.03,-5.83 7.29,-11.33 12.76,-16.45 5.62,-5.26 11.63,-9.26 18.03,-12.05 6.41,-2.79 12.88,-4.23 19.42,-4.29 6.54,-0.09 13.06,1.34 19.61,4.27 6.53,2.95 12.68,7.44 18.41,13.49 2.92,3.12 5.47,6.26 7.68,9.45 2.17,3.18 3.94,6.24 5.27,9.2l-11.34 10.62c-1.86,-3.76 -3.83,-7.06 -5.84,-9.93 -2,-2.85 -4.15,-5.49 -6.42,-7.91zm15.12 125.67l-20.93 -31.93 -26.79 5.87 -10.79 -16.46 106.24 -21.78 9.25 14.12 -62.35 88.74 -10.71 -16.33 16.07 -22.22zm32.05 -44.02c-10.75,2.74 -19.86,4.9 -27.3,6.45l-9.51 2.14 14.41 21.99 5.74 -7.86c4.44,-6.23 10.05,-13.72 16.83,-22.47l-0.17 -0.26zm15.38 128.63c2.35,-0.98 4.03,-2.36 5,-4.13 0.99,-1.78 1.52,-3.84 1.61,-6.22 0.12,-2.39 -0.08,-4.93 -0.52,-7.65 -0.46,-2.71 -0.98,-5.55 -1.57,-8.49 -0.7,-3.95 -1.23,-7.8 -1.5,-11.53 -0.28,-3.73 0.03,-7.26 0.91,-10.56 0.88,-3.3 2.5,-6.31 4.85,-9.03 2.34,-2.73 5.74,-5.01 10.2,-6.88 4.92,-2.05 9.55,-2.99 13.92,-2.78 4.35,0.19 8.34,1.28 11.97,3.23 3.61,1.98 6.83,4.67 9.68,8.17 2.84,3.47 5.3,7.68 7.38,12.64 2.07,4.96 3.68,10.14 4.8,15.56 1.12,5.41 1.66,10.24 1.66,14.5l-14.6 6.1c-0.12,-5.61 -0.67,-10.81 -1.67,-15.61 -0.99,-4.77 -2.31,-9.13 -3.93,-13.02 -2.34,-5.6 -5.17,-9.49 -8.48,-11.68 -3.31,-2.19 -7.01,-2.43 -11.09,-0.72 -2.37,0.99 -4.12,2.3 -5.24,3.95 -1.1,1.63 -1.81,3.49 -2.09,5.61 -0.28,2.13 -0.27,4.43 0.05,6.92 0.33,2.46 0.77,5.03 1.28,7.74 0.82,4.29 1.41,8.44 1.8,12.46 0.43,4.03 0.24,7.85 -0.54,11.44 -0.82,3.58 -2.41,6.84 -4.87,9.76 -2.46,2.92 -6.14,5.41 -11,7.44 -5.01,2.09 -9.74,2.98 -14.17,2.66 -4.43,-0.33 -8.57,-1.69 -12.4,-4.11 -3.79,-2.4 -7.3,-5.79 -10.49,-10.17 -3.21,-4.4 -6,-9.48 -8.42,-15.28 -2.11,-5.06 -3.7,-10.25 -4.74,-15.55 -1.05,-5.31 -1.34,-9.95 -0.9,-13.96l14.39 -6.01c-0.07,5.44 0.35,10.51 1.27,15.25 0.91,4.72 2.35,9.42 4.28,14.05 1.12,2.68 2.45,5.25 3.98,7.65 1.51,2.41 3.24,4.42 5.17,6.04 1.93,1.62 4.07,2.68 6.45,3.16 2.35,0.49 4.87,0.17 7.57,-0.96zm-1.87 85.11l-4.17 -18.05 83.17 -19.2 -7.33 -31.73 15.04 -3.47 18.8 81.44 -15.04 3.47 -7.31 -31.66 -83.17 19.2z"/>
 </g>
</svg>
