<?xml version="1.0" encoding="UTF-8"?>
<!DOCTYPE svg PUBLIC "-//W3C//DTD SVG 1.1//EN" "http://www.w3.org/Graphics/SVG/1.1/DTD/svg11.dtd">
<!-- Creator: CorelDRAW 2020 (64 Bit) -->
<svg xmlns="http://www.w3.org/2000/svg" xml:space="preserve" width="16.3977mm" height="36.5791mm" version="1.1" style="shape-rendering:geometricPrecision; text-rendering:geometricPrecision; image-rendering:optimizeQuality; fill-rule:evenodd; clip-rule:evenodd"
viewBox="0 0 175.5 391.5"
 xmlns:xlink="http://www.w3.org/1999/xlink"
 xmlns:xodm="http://www.corel.com/coreldraw/odm/2003">
 <defs>
  <style type="text/css">
   <![CDATA[
    .fil0 {fill:white;fill-rule:nonzero}
   ]]>
  </style>
 </defs>
 <g id="Camada_x0020_1">
  <metadata id="CorelCorpID_0Corel-Layer"/>
  <path class="fil0" d="M118.42 173.97c1.43,-0.07 2.82,-0.27 4.18,-0.59 1.36,-0.32 2.36,-0.73 3,-1.23 0.64,0.64 1.39,1.63 2.25,2.95 0.86,1.32 1.55,2.82 2.09,4.5 0.54,1.68 0.77,3.45 0.7,5.31 -0.14,2.79 -1.32,5.02 -3.54,6.7 -2.22,1.68 -4.97,2.56 -8.26,2.63 -0.65,0 -1.84,0 -3.6,0 -1.75,0 -3.63,0 -5.63,0 -2,0 -3.64,0 -4.93,0 -1.22,0 -2.4,0.31 -3.54,0.91 -1.15,0.61 -1.82,1.3 -2.04,2.09 -0.36,1.07 0.29,1.97 1.93,2.68 0.36,0.14 1.23,0.61 2.63,1.39 1.39,0.79 3.02,1.66 4.88,2.63 1.86,0.96 3.72,1.86 5.58,2.68 1.86,0.82 3.45,1.38 4.77,1.66 1.32,0.29 2.12,0.11 2.41,-0.54 0.72,0.29 1.75,0.8 3.11,1.56 1.36,0.75 2.52,1.97 3.49,3.65 0.97,1.68 1.34,4.06 1.13,7.13 -0.14,1.65 -1.14,3.75 -3,6.33 -1.86,2.57 -5.25,5.04 -10.19,7.4 -4.72,2.22 -7.92,4.02 -9.6,5.41 -1.68,1.4 -2.45,2.41 -2.31,3.06 0.07,0.57 0.47,1.02 1.18,1.34 0.71,0.32 1.72,0.63 3,0.91 0.64,0.14 1.72,0.22 3.22,0.22 1.5,0 3.18,-0.07 5.04,-0.22 1.86,-0.14 3.61,-0.41 5.25,-0.8 1.64,-0.39 2.9,-0.91 3.75,-1.55 0.36,0.57 0.97,1.59 1.82,3.06 0.86,1.47 1.63,3.11 2.3,4.93 0.68,1.82 1.02,3.59 1.02,5.31 -0.07,2.57 -0.77,4.72 -2.09,6.43 -1.32,1.72 -3.95,2.75 -7.88,3.11 -0.64,0.07 -2.47,0.11 -5.47,0.11 -3,0 -6.79,0 -11.37,0 -4.58,0 -9.49,0 -14.74,0 -5.26,0 -10.46,0 -15.6,0 -5.15,0 -9.87,-0.02 -14.15,-0.05 -4.29,-0.03 -7.72,-0.05 -10.29,-0.05l-2.81 0c-0.46,-1.59 -0.83,-3.21 -1.1,-4.85 0.12,-1.62 0.39,-3.36 0.81,-5.23 0.5,-2.22 1.31,-4.25 2.41,-6.11 1.11,-1.86 2.66,-3.14 4.67,-3.86 0,0 0.66,-0.34 1.98,-1.02 1.32,-0.68 3.04,-1.59 5.15,-2.73 2.11,-1.15 4.38,-2.38 6.81,-3.7 2.43,-1.32 4.82,-2.61 7.19,-3.86 2.36,-1.25 4.43,-2.36 6.22,-3.33 1.79,-0.97 3.04,-1.63 3.75,-1.98 2.07,-1.22 3.5,-2.38 4.29,-3.48 0.79,-1.11 1.22,-2.3 1.29,-3.59 0,-2.65 -2.04,-5.18 -6.11,-7.61 -0.64,-0.36 -2.02,-1.07 -4.13,-2.14 -2.11,-1.07 -4.63,-2.32 -7.56,-3.75 -2.93,-1.43 -5.93,-2.91 -9.01,-4.45 -3.08,-1.54 -5.95,-2.95 -8.63,-4.24 -2.68,-1.29 -4.86,-2.34 -6.54,-3.16 -1.68,-0.82 -2.52,-1.23 -2.52,-1.23 -0.07,-0.5 -0.12,-1.23 -0.16,-2.2 -0.04,-0.97 0.02,-2.02 0.16,-3.16 0.14,-2 0.54,-4.13 1.18,-6.38 0.64,-2.25 1.65,-4.22 3,-5.9 1.36,-1.68 3.18,-2.63 5.47,-2.84 1.21,-0.14 3.2,-0.25 5.95,-0.32 2.75,-0.07 6.01,-0.11 9.76,-0.11 3.75,0 7.74,0 11.96,0 4.22,0 8.37,0.02 12.44,0.05 4.07,0.04 7.83,0.07 11.26,0.11 3.43,0.04 6.24,0.05 8.42,0.05 2.18,0 3.48,0 3.91,0zm-22.18 166.08c14.96,0.53 28.45,2.42 38.73,5.22 15.39,4.18 24.91,11.33 24.91,20.43 0,9.1 -9.52,16.24 -24.91,20.43 -12.19,3.32 -28.9,5.37 -47.21,5.37 -18.32,0 -35.02,-2.05 -47.21,-5.37 -15.39,-4.18 -24.91,-11.32 -24.91,-20.43 0,-9.1 9.52,-16.24 24.91,-20.43 10.28,-2.8 23.77,-4.69 38.73,-5.22l0 -18.71c-15.55,-1.93 -29.53,-9.1 -40.1,-19.67 -12.46,-12.46 -20.2,-29.66 -20.2,-48.59l0 -22.39c-10.47,0 -18.96,-8.49 -18.96,-18.96 0,-10.47 8.49,-18.96 18.96,-18.96l16.98 0 0 60.3c0,14.24 5.83,27.19 15.23,36.59 9.39,9.39 22.35,15.23 36.59,15.23 14.24,0 27.19,-5.83 36.59,-15.23 9.39,-9.39 15.23,-22.35 15.23,-36.59l0 -60.3 16.98 0c10.47,0 18.96,8.49 18.96,18.96 0,10.47 -8.49,18.96 -18.96,18.96l0 22.39c0,18.93 -7.74,36.13 -20.2,48.59 -10.57,10.57 -24.55,17.74 -40.1,19.67l0 18.72zm14.83 -329.48c0,2.57 -0.59,4.65 -1.77,6.22 -1.18,1.57 -2.63,2.68 -4.34,3.32 -1.72,0.64 -3.36,0.89 -4.93,0.75 -2.07,-0.21 -3.97,-1.25 -5.68,-3.11 -1.72,-1.86 -2.57,-4.4 -2.57,-7.61 0,-2.22 0.18,-3.88 0.54,-4.99 0.36,-1.11 1.11,-1.98 2.25,-2.63 1.14,-0.64 2.86,-1.36 5.15,-2.14 1.64,-0.57 3.34,-0.52 5.09,0.16 1.75,0.68 3.23,1.88 4.45,3.59 1.22,1.72 1.82,3.86 1.82,6.43zm-15.38 22.28c0.07,0.29 0.46,0.7 1.18,1.23 0.71,0.54 1.47,0.91 2.25,1.13 1.14,0.36 2.07,0.25 2.79,-0.32 1.79,-1.5 3.88,-3.43 6.27,-5.79 2.39,-2.36 4.67,-4.73 6.81,-7.13 2.14,-2.4 3.79,-4.45 4.93,-6.17 3.43,1.29 6.17,3.31 8.2,6.06 2.04,2.75 3.02,5.81 2.95,9.17 -0.07,3.36 -1.57,6.65 -4.5,9.87 -0.43,0.43 -1.38,1.25 -2.84,2.47 -1.47,1.21 -3.2,2.61 -5.2,4.18 -2,1.57 -4,3.15 -6.01,4.72 -2,1.57 -3.75,2.93 -5.25,4.07 -1.5,1.14 -2.43,1.86 -2.79,2.14 -1.79,1.36 -2.18,2.65 -1.18,3.86 1,1.21 3.07,1.97 6.22,2.25 1.86,0.14 3.98,0.13 6.38,-0.05 2.4,-0.18 4.52,-0.47 6.38,-0.86 1.86,-0.39 2.97,-0.8 3.33,-1.23 1.15,1.5 2.22,3.36 3.22,5.58 1,2.21 1.61,4.75 1.82,7.61 0.07,1.07 -0.21,2.32 -0.86,3.75 -0.64,1.43 -1.7,2.66 -3.16,3.7 -1.47,1.04 -3.31,1.59 -5.52,1.67 -0.57,0 -2.07,0.02 -4.5,0.05 -2.43,0.04 -5.41,0.07 -8.95,0.11 -3.54,0.04 -7.2,0.05 -10.99,0.05 -3.79,0 -7.36,0.02 -10.72,0.05 -3.36,0.04 -6.08,0.05 -8.15,0.05 -2.07,0 -3.11,0 -3.11,0 -4.22,0 -7.74,0.11 -10.56,0.32 -2.82,0.21 -4.99,1.07 -6.49,2.57 -1.36,1.36 -3.33,2.37 -5.9,3.05 -2.57,0.68 -5,0.98 -7.29,0.91 0.07,-0.28 0.16,-1.14 0.27,-2.57 0.11,-1.43 0.23,-2.82 0.38,-4.18 0,-0.93 -0.02,-2.27 -0.05,-4.02 -0.04,-1.75 -0.09,-3.63 -0.16,-5.63 -0.07,-2 -0.12,-3.86 -0.16,-5.57 -0.04,-1.72 -0.09,-3 -0.16,-3.86 0,-0.64 -0.02,-1.84 -0.05,-3.59 -0.04,-1.75 -0.05,-3.81 -0.05,-6.16 0,-2.36 0.02,-4.75 0.05,-7.18 0.04,-2.43 0.13,-4.68 0.27,-6.76 0.14,-2.07 0.32,-3.68 0.54,-4.83 0.86,-4.72 2.43,-8.36 4.72,-10.94 2.29,-2.57 5.04,-4.41 8.26,-5.52 3.22,-1.11 6.72,-1.77 10.51,-1.98 3.22,-0.14 6.58,0.22 10.08,1.07 3.5,0.86 6.76,2.32 9.76,4.4 3,2.07 5.36,4.82 7.08,8.26zm-23.06 31.53c2.29,0 3.99,-0.54 5.09,-1.61 1.11,-1.07 1.77,-2.07 1.99,-3 0.29,-1.29 0.3,-2.93 0.05,-4.93 -0.25,-2 -0.75,-4 -1.5,-6.01 -0.75,-2 -1.73,-3.7 -2.95,-5.09 -1.22,-1.4 -2.61,-2.09 -4.18,-2.09 -2.07,0 -3.66,0.86 -4.77,2.58 -1.11,1.72 -1.8,3.88 -2.09,6.49 -0.29,2.61 -0.22,5.2 0.21,7.77 0.28,2 1.18,3.51 2.68,4.5 1.5,1 3.32,1.47 5.47,1.39zm36.67 56.19c0.5,-2.5 0.84,-4.97 1.02,-7.4 0.18,-2.43 0.21,-4.56 0.1,-6.38 -0.1,-1.82 -0.27,-3.13 -0.48,-3.91 1.22,-0.29 2.73,-0.36 4.56,-0.22 1.82,0.14 3.68,0.52 5.57,1.13 1.89,0.61 3.59,1.52 5.1,2.73 1.5,1.22 2.54,2.79 3.11,4.72 0.36,1.21 0.7,3.11 1.02,5.68 0.32,2.58 0.59,5.52 0.8,8.85 0.21,3.33 0.34,6.76 0.37,10.29 0.04,3.54 -0.03,6.92 -0.21,10.13 -0.18,3.22 -0.5,6.02 -0.97,8.42 -0.47,2.39 -1.06,4.09 -1.77,5.09 -1.57,1.93 -3.52,2.98 -5.84,3.16 -2.32,0.18 -4.7,-0.21 -7.13,-1.18 -2.43,-0.97 -4.47,-2.16 -6.11,-3.59 -1,-0.86 -2.65,-2.14 -4.93,-3.86 -2.29,-1.71 -4.84,-3.59 -7.67,-5.63 -2.83,-2.04 -5.61,-4.02 -8.37,-5.95 -2.75,-1.93 -5.11,-3.57 -7.08,-4.93 -1.97,-1.36 -3.2,-2.18 -3.7,-2.47 -1.29,-0.71 -2.56,-1.12 -3.81,-1.23 -1.25,-0.11 -2.34,0.02 -3.27,0.38 -1.21,0.43 -2.23,1.16 -3.06,2.2 -0.82,1.04 -1.38,2.59 -1.66,4.66 -0.14,1.07 -0.3,2.43 -0.48,4.07 -0.18,1.65 -0.43,3.38 -0.75,5.2 -0.32,1.82 -0.73,3.47 -1.23,4.93 -0.5,1.47 -1.11,2.55 -1.82,3.27 -0.93,0.93 -2.31,1.77 -4.13,2.52 -1.82,0.75 -3.79,1.32 -5.9,1.72 -2.11,0.39 -3.99,0.59 -5.63,0.59 0.14,-0.36 0.29,-1.62 0.43,-3.8 0.14,-2.18 0.29,-4.86 0.43,-8.04 0.14,-3.18 0.27,-6.51 0.38,-9.97 0.11,-3.47 0.19,-6.76 0.27,-9.87 0.07,-3.11 0.11,-5.63 0.11,-7.56 0.07,-5.15 -0.05,-9.72 -0.37,-13.73 -0.32,-4 -0.7,-6.86 -1.13,-8.58 1.86,-1 3.95,-1.52 6.27,-1.55 2.32,-0.04 4.65,0.29 6.97,0.96 2.32,0.68 4.45,1.59 6.38,2.73 0.5,0.29 1.55,0.97 3.16,2.04 1.61,1.07 3.56,2.38 5.85,3.92 2.29,1.54 4.66,3.16 7.13,4.88 2.47,1.72 4.81,3.32 7.02,4.83 2.22,1.5 4.07,2.77 5.58,3.81 1.5,1.04 2.43,1.66 2.79,1.88 3.5,2.29 6.34,2.97 8.52,2.04 2.18,-0.93 3.7,-3.25 4.56,-6.97z"/>
 </g>
</svg>
